<svg width="128" height="34" viewBox="0 0 128 34" fill="none" xmlns="http://www.w3.org/2000/svg">
<circle cx="14.5886" cy="27.5" r="6.5" fill="#F8FAFC"/>
<rect x="30.3799" y="24.0333" width="31" height="2.5" transform="rotate(-167.725 30.3799 24.0333)" fill="#F8FAFC"/>
<path d="M17.7322 18.5431L7.30419 8.26861L21.4162 4.37496L17.7322 18.5431Z" fill="#F8FAFC"/>
<path d="M42.2651 28.3963C41.1936 28.3963 40.2212 28.1945 39.3479 27.7908C38.4745 27.3799 37.781 26.7891 37.2673 26.0185C36.7535 25.2405 36.4967 24.3011 36.4967 23.2003C36.4967 22.2315 36.6875 21.4463 37.0691 20.8445C37.4507 20.2353 37.9608 19.7583 38.5993 19.4134C39.2378 19.0684 39.9423 18.8116 40.7129 18.6428C41.4909 18.4666 42.2725 18.3272 43.0577 18.2244C44.0852 18.0923 44.9182 17.9933 45.5567 17.9272C46.2025 17.8538 46.6722 17.7327 46.9658 17.5639C47.2667 17.3951 47.4171 17.1016 47.4171 16.6832V16.5952C47.4171 15.509 47.1199 14.665 46.5254 14.0632C45.9383 13.4614 45.0466 13.1605 43.8504 13.1605C42.6101 13.1605 41.6376 13.4321 40.9331 13.9751C40.2286 14.5182 39.7332 15.098 39.4469 15.7145L36.981 14.8338C37.4214 13.8063 38.0085 13.0064 38.7424 12.4339C39.4836 11.8542 40.2909 11.4505 41.1643 11.223C42.045 10.9882 42.911 10.8707 43.7623 10.8707C44.3054 10.8707 44.9292 10.9368 45.6337 11.0689C46.3456 11.1937 47.0318 11.4542 47.6923 11.8505C48.3602 12.2468 48.9143 12.8449 49.3546 13.6449C49.795 14.4448 50.0151 15.5163 50.0151 16.8594V28H47.4171V25.7102H47.285C47.1089 26.0772 46.8153 26.4698 46.4043 26.8881C45.9934 27.3065 45.4466 27.6624 44.7641 27.956C44.0815 28.2495 43.2486 28.3963 42.2651 28.3963ZM42.6614 26.0625C43.6889 26.0625 44.5549 25.8607 45.2595 25.457C45.9713 25.0534 46.5071 24.5323 46.8667 23.8938C47.2336 23.2553 47.4171 22.5838 47.4171 21.8793V19.5014C47.307 19.6335 47.0648 19.7546 46.6906 19.8647C46.3236 19.9674 45.8979 20.0592 45.4136 20.1399C44.9365 20.2133 44.4705 20.2794 44.0155 20.3381C43.5678 20.3894 43.2045 20.4335 42.9256 20.4702C42.2505 20.5582 41.6193 20.7013 41.0322 20.8995C40.4524 21.0903 39.9827 21.3802 39.6231 21.7692C39.2708 22.1508 39.0947 22.6719 39.0947 23.3324C39.0947 24.2351 39.4286 24.9176 40.0965 25.38C40.7716 25.835 41.6266 26.0625 42.6614 26.0625ZM60.6065 28.3523C58.9773 28.3523 57.5719 27.9927 56.3903 27.2734C55.216 26.5469 54.3097 25.5341 53.6712 24.2351C53.04 22.9287 52.7244 21.4096 52.7244 19.6776C52.7244 17.9455 53.04 16.419 53.6712 15.098C54.3097 13.7696 55.1977 12.7348 56.3352 11.9936C57.4801 11.245 58.8158 10.8707 60.3423 10.8707C61.223 10.8707 62.0927 11.0175 62.9514 11.3111C63.81 11.6046 64.5916 12.0817 65.2962 12.7422C66.0007 13.3954 66.5622 14.2614 66.9805 15.3402C67.3988 16.419 67.608 17.7474 67.608 19.3253V20.4261H54.5739V18.1804H64.9659C64.9659 17.2263 64.7751 16.375 64.3935 15.6264C64.0192 14.8778 63.4834 14.287 62.7862 13.854C62.0964 13.421 61.2817 13.2045 60.3423 13.2045C59.3075 13.2045 58.4122 13.4614 57.6563 13.9751C56.9077 14.4815 56.3316 15.142 55.9279 15.9567C55.5243 16.7713 55.3225 17.6446 55.3225 18.5767V20.0739C55.3225 21.3509 55.5426 22.4334 55.983 23.3214C56.4306 24.2021 57.0508 24.8736 57.8434 25.3359C58.636 25.791 59.5571 26.0185 60.6065 26.0185C61.2891 26.0185 61.9055 25.9231 62.456 25.7322C63.0137 25.5341 63.4944 25.2405 63.8981 24.8516C64.3017 24.4553 64.6136 23.9635 64.8338 23.3764L67.3438 24.081C67.0796 24.9323 66.6355 25.6809 66.0117 26.3267C65.3879 26.9652 64.6173 27.4643 63.6999 27.8239C62.7826 28.1761 61.7514 28.3523 60.6065 28.3523ZM82.2973 14.8778L79.9635 15.5384C79.8167 15.1494 79.6002 14.7714 79.314 14.4045C79.0351 14.0302 78.6535 13.7219 78.1691 13.4798C77.6847 13.2376 77.0646 13.1165 76.3087 13.1165C75.2739 13.1165 74.4115 13.355 73.7217 13.832C73.0391 14.3017 72.6979 14.8999 72.6979 15.6264C72.6979 16.2723 72.9327 16.7823 73.4024 17.1566C73.8721 17.5309 74.606 17.8428 75.6041 18.0923L78.1141 18.7088C79.6259 19.0758 80.7524 19.6372 81.4937 20.3931C82.2349 21.1417 82.6055 22.1068 82.6055 23.2884C82.6055 24.2571 82.3267 25.1231 81.7689 25.8864C81.2185 26.6496 80.4479 27.2514 79.4571 27.6918C78.4663 28.1321 77.3141 28.3523 76.0004 28.3523C74.2758 28.3523 72.8483 27.978 71.7181 27.2294C70.5879 26.4808 69.8723 25.3873 69.5714 23.9489L72.0374 23.3324C72.2722 24.2424 72.7162 24.925 73.3694 25.38C74.0299 25.835 74.8922 26.0625 75.9564 26.0625C77.1673 26.0625 78.1287 25.8056 78.8406 25.2919C79.5598 24.7708 79.9195 24.147 79.9195 23.4205C79.9195 22.8333 79.714 22.3416 79.303 21.9453C78.892 21.5417 78.2608 21.2408 77.4095 21.0426L74.5913 20.3821C73.0428 20.0152 71.9052 19.4464 71.1787 18.6758C70.4595 17.8978 70.0999 16.9254 70.0999 15.7585C70.0999 14.8045 70.3677 13.9605 70.9035 13.2266C71.4466 12.4927 72.1841 11.9165 73.1162 11.4982C74.0556 11.0799 75.1197 10.8707 76.3087 10.8707C77.982 10.8707 79.2956 11.2377 80.2497 11.9716C81.2111 12.7055 81.8936 13.6742 82.2973 14.8778ZM95.9326 21.0866V11.0909H98.5306V28H95.9326V25.1378H95.7564C95.3601 25.9964 94.7436 26.7267 93.907 27.3285C93.0703 27.9229 92.0135 28.2202 90.7365 28.2202C89.6797 28.2202 88.7403 27.989 87.9184 27.5266C87.0964 27.0569 86.4506 26.3524 85.9809 25.413C85.5112 24.4663 85.2763 23.2737 85.2763 21.8352V11.0909H87.8743V21.6591C87.8743 22.892 88.2193 23.8755 88.9091 24.6094C89.6063 25.3433 90.4943 25.7102 91.5732 25.7102C92.219 25.7102 92.8759 25.5451 93.5437 25.2148C94.2189 24.8846 94.784 24.3782 95.239 23.6957C95.7014 23.0131 95.9326 22.1435 95.9326 21.0866ZM102.049 28V11.0909H104.559V13.6449H104.735C105.043 12.8082 105.601 12.1294 106.408 11.6083C107.216 11.0872 108.126 10.8267 109.138 10.8267C109.329 10.8267 109.568 10.8304 109.854 10.8377C110.14 10.8451 110.357 10.8561 110.504 10.8707V13.5128C110.415 13.4908 110.214 13.4577 109.898 13.4137C109.59 13.3623 109.263 13.3366 108.918 13.3366C108.096 13.3366 107.362 13.5091 106.717 13.854C106.078 14.1916 105.572 14.6613 105.197 15.2631C104.83 15.8576 104.647 16.5365 104.647 17.2997V28H102.049ZM117.319 28.3963C116.248 28.3963 115.275 28.1945 114.402 27.7908C113.528 27.3799 112.835 26.7891 112.321 26.0185C111.807 25.2405 111.551 24.3011 111.551 23.2003C111.551 22.2315 111.741 21.4463 112.123 20.8445C112.505 20.2353 113.015 19.7583 113.653 19.4134C114.292 19.0684 114.996 18.8116 115.767 18.6428C116.545 18.4666 117.326 18.3272 118.112 18.2244C119.139 18.0923 119.972 17.9933 120.611 17.9272C121.256 17.8538 121.726 17.7327 122.02 17.5639C122.321 17.3951 122.471 17.1016 122.471 16.6832V16.5952C122.471 15.509 122.174 14.665 121.579 14.0632C120.992 13.4614 120.101 13.1605 118.904 13.1605C117.664 13.1605 116.692 13.4321 115.987 13.9751C115.282 14.5182 114.787 15.098 114.501 15.7145L112.035 14.8338C112.475 13.8063 113.062 13.0064 113.796 12.4339C114.538 11.8542 115.345 11.4505 116.218 11.223C117.099 10.9882 117.965 10.8707 118.816 10.8707C119.359 10.8707 119.983 10.9368 120.688 11.0689C121.4 11.1937 122.086 11.4542 122.746 11.8505C123.414 12.2468 123.968 12.8449 124.409 13.6449C124.849 14.4448 125.069 15.5163 125.069 16.8594V28H122.471V25.7102H122.339C122.163 26.0772 121.869 26.4698 121.458 26.8881C121.047 27.3065 120.501 27.6624 119.818 27.956C119.135 28.2495 118.302 28.3963 117.319 28.3963ZM117.715 26.0625C118.743 26.0625 119.609 25.8607 120.313 25.457C121.025 25.0534 121.561 24.5323 121.921 23.8938C122.288 23.2553 122.471 22.5838 122.471 21.8793V19.5014C122.361 19.6335 122.119 19.7546 121.744 19.8647C121.378 19.9674 120.952 20.0592 120.467 20.1399C119.99 20.2133 119.524 20.2794 119.069 20.3381C118.622 20.3894 118.258 20.4335 117.98 20.4702C117.304 20.5582 116.673 20.7013 116.086 20.8995C115.506 21.0903 115.037 21.3802 114.677 21.7692C114.325 22.1508 114.149 22.6719 114.149 23.3324C114.149 24.2351 114.483 24.9176 115.15 25.38C115.826 25.835 116.681 26.0625 117.715 26.0625Z" fill="#F8FAFC"/>
</svg>
